<?xml version="1.0"?>
<svg xmlns="http://www.w3.org/2000/svg" id="Layer_1" data-name="Layer 1" viewBox="0 0 512 512" width="512px" height="512px" class=""><g><title>Logistics map pin</title><path d="M400,278.83c47.43,0,81.93,37.5,84.82,79.85a81.026,81.026,0,0,1-5.06,33.78,88.884,88.884,0,0,1-19.43,30.19L400,485.62l-60.33-62.97a98.114,98.114,0,0,1-6.57-7.57,84.851,84.851,0,0,1-12.86-22.62,81.026,81.026,0,0,1-5.06-33.78C318.07,316.33,352.57,278.83,400,278.83Zm55.52,78.85A55.521,55.521,0,1,0,400,413.55,55.7,55.7,0,0,0,455.52,357.68Z" style="fill:#FFC107" data-original="#E48E66" class="" data-old_color="#E48E66"/><ellipse cx="400" cy="357.68" rx="55.52" ry="55.87" style="fill:#EFEFEF" data-original="#F8EC7D" class="active-path" data-old_color="#EEEDED"/><path d="M400,135.55V278.83c-47.43,0-81.93,37.5-84.82,79.85a81.026,81.026,0,0,0,5.06,33.78,84.851,84.851,0,0,0,12.86,22.62L208,487.3V246.38L399.98,135.54Z" style="fill:#8C8C8C" data-original="#E2D574" class="" data-old_color="#8A8A8A"/><polygon points="208 246.38 141.14 207.78 333.13 96.94 399.98 135.54 208 246.38" style="fill:#EFEFEF" data-original="#F8EC7D" class="active-path" data-old_color="#EEEDED"/><polygon points="333.13 96.94 141.14 207.78 92.21 179.53 284.19 68.69 333.13 96.94" style="fill:#FFC107" data-original="#E48E66" class="" data-old_color="#E48E66"/><polygon points="208 24.7 284.19 68.69 92.21 179.53 92.2 179.53 16.02 135.54 208 24.7" style="fill:#EFEFEF" data-original="#F8EC7D" class="active-path" data-old_color="#EEEDED"/><polygon points="208 246.38 208 487.3 16 376.45 16 135.55 16.02 135.54 92.2 179.53 92.2 339.28 115.45 329.68 140.8 358.48 140.8 207.98 141.14 207.78 208 246.38" style="fill:#03A9F4" data-original="#6FE3FF" class="" data-old_color="#6FE3FF"/><polygon points="141.14 207.78 140.8 207.98 140.8 358.48 115.45 329.68 92.2 339.28 92.2 179.53 92.21 179.53 141.14 207.78" style="fill:#DFAB0B" data-original="#CC7350" class="" data-old_color="#E0AC0B"/></g> </svg>
